<svg width="728" height="411" viewBox="0 0 728 411" fill="none" xmlns="http://www.w3.org/2000/svg">
<g clip-path="url(#clip0_7941_38174)">
<g clip-path="url(#clip1_7941_38174)">
<path fill-rule="evenodd" clip-rule="evenodd" d="M727.186 338.017L0.00219727 338.016V338.835L727.186 338.835V338.017Z" fill="url(#paint0_linear_7941_38174)" fill-opacity="0.3"/>
<path fill-rule="evenodd" clip-rule="evenodd" d="M395.475 0.845703L395.475 411L396.293 411L396.293 0.845703H395.475Z" fill="url(#paint1_linear_7941_38174)" fill-opacity="0.3"/>
<path fill-rule="evenodd" clip-rule="evenodd" d="M727.186 253.725L0.00219727 253.725V254.543L727.186 254.543V253.725Z" fill="url(#paint2_linear_7941_38174)" fill-opacity="0.3"/>
<path fill-rule="evenodd" clip-rule="evenodd" d="M312.545 0.845703L312.545 411L313.363 411L313.363 0.845703H312.545Z" fill="url(#paint3_linear_7941_38174)" fill-opacity="0.3"/>
<path fill-rule="evenodd" clip-rule="evenodd" d="M727.182 0.845673L727.182 411L728 411L728 0.845673H727.182Z" fill="url(#paint4_linear_7941_38174)" fill-opacity="0.3"/>
<path fill-rule="evenodd" clip-rule="evenodd" d="M727.186 169.43L0.00219727 169.43V170.249L727.186 170.249V169.43Z" fill="url(#paint5_linear_7941_38174)" fill-opacity="0.3"/>
<path fill-rule="evenodd" clip-rule="evenodd" d="M229.621 0.845703L229.621 411L230.439 411L230.439 0.845703H229.621Z" fill="url(#paint6_linear_7941_38174)" fill-opacity="0.3"/>
<path fill-rule="evenodd" clip-rule="evenodd" d="M644.252 0.845673V411L645.071 411V0.845673H644.252Z" fill="url(#paint7_linear_7941_38174)" fill-opacity="0.3"/>
<path fill-rule="evenodd" clip-rule="evenodd" d="M727.186 85.1404L0.00213623 85.1404V85.959L727.186 85.959V85.1404Z" fill="url(#paint8_linear_7941_38174)" fill-opacity="0.3"/>
<path fill-rule="evenodd" clip-rule="evenodd" d="M146.689 0.845703L146.689 411L147.508 411L147.508 0.845703H146.689Z" fill="url(#paint9_linear_7941_38174)" fill-opacity="0.3"/>
<path fill-rule="evenodd" clip-rule="evenodd" d="M561.328 0.845673V411L562.146 411V0.845673H561.328Z" fill="url(#paint10_linear_7941_38174)" fill-opacity="0.3"/>
<path fill-rule="evenodd" clip-rule="evenodd" d="M63.7654 0.845703L63.7654 411L64.584 411L64.584 0.845703H63.7654Z" fill="url(#paint11_linear_7941_38174)" fill-opacity="0.3"/>
<path fill-rule="evenodd" clip-rule="evenodd" d="M478.398 0.845673L478.398 411L479.217 411L479.217 0.845673H478.398Z" fill="url(#paint12_linear_7941_38174)" fill-opacity="0.3"/>
<path d="M229.616 338.016L147.508 338.016L147.508 254.541L229.616 254.541L229.616 338.016Z" fill="#9d4dfe" fill-opacity="0.1"/>
<path d="M312.552 253.727L230.439 253.727L230.439 170.252L312.552 170.252L312.552 253.727Z" fill="#9d4dfe" fill-opacity="0.1"/>
</g>
</g>
<defs>
<linearGradient id="paint0_linear_7941_38174" x1="278.468" y1="411" x2="412.747" y2="29.4184" gradientUnits="userSpaceOnUse">
<stop stop-color="#9d4dfe"/>
<stop offset="1" stop-color="#9d4dfe" stop-opacity="0"/>
</linearGradient>
<linearGradient id="paint1_linear_7941_38174" x1="278.464" y1="411" x2="412.741" y2="29.4169" gradientUnits="userSpaceOnUse">
<stop stop-color="#9d4dfe"/>
<stop offset="1" stop-color="#9d4dfe" stop-opacity="0"/>
</linearGradient>
<linearGradient id="paint2_linear_7941_38174" x1="278.468" y1="410.999" x2="412.745" y2="29.4191" gradientUnits="userSpaceOnUse">
<stop stop-color="#9d4dfe"/>
<stop offset="1" stop-color="#9d4dfe" stop-opacity="0"/>
</linearGradient>
<linearGradient id="paint3_linear_7941_38174" x1="278.464" y1="411" x2="412.74" y2="29.4169" gradientUnits="userSpaceOnUse">
<stop stop-color="#9d4dfe"/>
<stop offset="1" stop-color="#9d4dfe" stop-opacity="0"/>
</linearGradient>
<linearGradient id="paint4_linear_7941_38174" x1="278.464" y1="411" x2="412.743" y2="29.4189" gradientUnits="userSpaceOnUse">
<stop stop-color="#9d4dfe"/>
<stop offset="1" stop-color="#9d4dfe" stop-opacity="0"/>
</linearGradient>
<linearGradient id="paint5_linear_7941_38174" x1="278.468" y1="410.997" x2="412.745" y2="29.4184" gradientUnits="userSpaceOnUse">
<stop stop-color="#9d4dfe"/>
<stop offset="1" stop-color="#9d4dfe" stop-opacity="0"/>
</linearGradient>
<linearGradient id="paint6_linear_7941_38174" x1="278.469" y1="411" x2="412.746" y2="29.417" gradientUnits="userSpaceOnUse">
<stop stop-color="#9d4dfe"/>
<stop offset="1" stop-color="#9d4dfe" stop-opacity="0"/>
</linearGradient>
<linearGradient id="paint7_linear_7941_38174" x1="278.462" y1="411" x2="412.74" y2="29.4187" gradientUnits="userSpaceOnUse">
<stop stop-color="#9d4dfe"/>
<stop offset="1" stop-color="#9d4dfe" stop-opacity="0"/>
</linearGradient>
<linearGradient id="paint8_linear_7941_38174" x1="278.467" y1="410.998" x2="412.745" y2="29.419" gradientUnits="userSpaceOnUse">
<stop stop-color="#9d4dfe"/>
<stop offset="1" stop-color="#9d4dfe" stop-opacity="0"/>
</linearGradient>
<linearGradient id="paint9_linear_7941_38174" x1="278.459" y1="411" x2="412.742" y2="29.422" gradientUnits="userSpaceOnUse">
<stop stop-color="#9d4dfe"/>
<stop offset="1" stop-color="#9d4dfe" stop-opacity="0"/>
</linearGradient>
<linearGradient id="paint10_linear_7941_38174" x1="278.463" y1="411" x2="412.741" y2="29.4182" gradientUnits="userSpaceOnUse">
<stop stop-color="#9d4dfe"/>
<stop offset="1" stop-color="#9d4dfe" stop-opacity="0"/>
</linearGradient>
<linearGradient id="paint11_linear_7941_38174" x1="278.473" y1="411" x2="412.749" y2="29.4169" gradientUnits="userSpaceOnUse">
<stop stop-color="#9d4dfe"/>
<stop offset="1" stop-color="#9d4dfe" stop-opacity="0"/>
</linearGradient>
<linearGradient id="paint12_linear_7941_38174" x1="278.464" y1="411" x2="412.744" y2="29.4195" gradientUnits="userSpaceOnUse">
<stop stop-color="#9d4dfe"/>
<stop offset="1" stop-color="#9d4dfe" stop-opacity="0"/>
</linearGradient>
<clipPath id="clip0_7941_38174">
<rect width="728.001" height="410.916" fill="white" transform="matrix(-1 0 0 -1 728 411)"/>
</clipPath>
<clipPath id="clip1_7941_38174">
<rect width="728.001" height="410.916" fill="white" transform="matrix(-1 0 0 -1 728 411)"/>
</clipPath>
</defs>
</svg>
